<svg xmlns="http://www.w3.org/2000/svg" xmlns:xlink="http://www.w3.org/1999/xlink" viewBox="0 0 465.65 174.22">
    <defs>
        <style>
            .cls-1{fill:none;}.cls-2{fill:#2866a2;}.cls-3{fill:#7d1e21;}.cls-4{fill:url(#Безымянный_градиент_8);}.cls-5{fill:url(#Безымянный_градиент_7);}.cls-6{fill:url(#Безымянный_градиент_6);}.cls-7{fill:url(#Безымянный_градиент_5);}.cls-8{fill:url(#Безымянный_градиент_4);}.cls-9{fill:url(#Безымянный_градиент_3);}.cls-10{fill:url(#Безымянный_градиент_2);}
        </style>
        <radialGradient id="Безымянный_градиент_8" cx="73.35" cy="131.36" r="17.04" gradientUnits="userSpaceOnUse">
            <stop offset="0" stop-color="#dd8930"/>
            <stop offset="0.68" stop-color="#dd8930"/>
            <stop offset="0.74" stop-color="#db822f"/>
            <stop offset="1" stop-color="#d3662c"/>
        </radialGradient>
        <radialGradient id="Безымянный_градиент_7" cx="95.57" cy="50.99" r="21.67" gradientUnits="userSpaceOnUse">
            <stop offset="0.28" stop-color="#dd8930"/>
            <stop offset="0.73" stop-color="#dd8930"/>
            <stop offset="0.82" stop-color="#db822f"/>
            <stop offset="0.95" stop-color="#d6702d"/>
            <stop offset="1" stop-color="#d3662c"/>
        </radialGradient>
        <radialGradient id="Безымянный_градиент_6" cx="98.77" cy="117.94" r="30.59" gradientUnits="userSpaceOnUse">
            <stop offset="0" stop-color="#1c5c99"/>
            <stop offset="0.25" stop-color="#1e4883"/>
            <stop offset="0.43" stop-color="#1e528d"/>
            <stop offset="0.66" stop-color="#1e64a1"/>
            <stop offset="0.79" stop-color="#3371ae"/>
            <stop offset="1" stop-color="#5f8dc9"/>
        </radialGradient>
        <radialGradient id="Безымянный_градиент_5" cx="103.32" cy="66.03" r="85.31" gradientUnits="userSpaceOnUse">
            <stop offset="0" stop-color="#7fa2d5"/>
            <stop offset="0.21" stop-color="#6589c5"/>
            <stop offset="0.44" stop-color="#3865a3"/>
            <stop offset="0.56" stop-color="#245594"/>
            <stop offset="0.69" stop-color="#1e4c89"/>
            <stop offset="0.79" stop-color="#1c518e"/>
            <stop offset="0.86" stop-color="#205898"/>
            <stop offset="0.92" stop-color="#2662a6"/>
            <stop offset="0.97" stop-color="#4b7dbb"/>
            <stop offset="1" stop-color="#6791cb"/>
        </radialGradient>
        <radialGradient id="Безымянный_градиент_4" cx="85.57" cy="80.62" r="50.74" gradientUnits="userSpaceOnUse">
            <stop offset="0" stop-color="#dd8930"/>
            <stop offset="0.75" stop-color="#dd8930"/>
            <stop offset="0.86" stop-color="#da7d2f"/>
            <stop offset="1" stop-color="#d3662c"/>
        </radialGradient>
        <radialGradient id="Безымянный_градиент_3" cx="85.57" cy="80.62" r="50.74" gradientUnits="userSpaceOnUse">
            <stop offset="0" stop-color="#dd8930"/>
            <stop offset="0.66" stop-color="#dd8930"/>
            <stop offset="0.97" stop-color="#d4692c"/>
            <stop offset="1" stop-color="#d3662c"/>
        </radialGradient>
        <radialGradient id="Безымянный_градиент_2" cx="119.23" cy="104.45" r="30.59"
                        gradientTransform="translate(191.63 160.73) rotate(180)" gradientUnits="userSpaceOnUse">
            <stop offset="0" stop-color="#1c5c99"/>
            <stop offset="0.17" stop-color="#1e4883"/>
            <stop offset="0.32" stop-color="#1e528d"/>
            <stop offset="0.5" stop-color="#1e64a1"/>
            <stop offset="0.94" stop-color="#5f8dc9"/>
        </radialGradient>
    </defs>
    <g id="Слой_2" data-name="Слой 2">
        <g id="Слой_1-2" data-name="Слой 1">
            <rect class="cls-1" width="465.65" height="174.22"/>
            <path class="cls-2"
                  d="M181.13,88.38c-2.53,1.57-5.48,2.08-11.95,2.08h-2.71v17.66H158V61.66H169.3c6,0,9.06.57,11.65,2.14,3.94,2.45,6.16,6.85,6.16,12.2S184.83,86.05,181.13,88.38Zm-6.47-18a21.41,21.41,0,0,0-5.36-.44h-2.83V82.22h2.46c3.27,0,5.61-.38,6.9-1.07a5.44,5.44,0,0,0,2.77-5C178.6,73.23,177.13,71,174.66,70.34Z"/>
            <path class="cls-2" d="M203.87,119.75h-8.82l6.41-14.9L189.57,73.29H198l8,22.57,9.3-22.57h8.38Z"/>
            <path class="cls-2"
                  d="M241.2,108.94A18.19,18.19,0,0,1,223,90.71a17.89,17.89,0,0,1,18-18.23,18.21,18.21,0,0,1,12.57,4.9,15.68,15.68,0,0,1,4.63,7.54H248.9a8.26,8.26,0,0,0-8-4.77c-5.66,0-9.73,4.4-9.73,10.49s4.25,10.63,9.92,10.63c3.39,0,5.73-1.39,7.76-4.59h9.25C255.31,104.48,249.15,108.94,241.2,108.94Z"/>
            <path class="cls-2" d="M271.21,69.9v38.22h-8.44V61.66h27.54V69.9Z"/>
            <path class="cls-2" d="M308,108.12V85.3l-13.06,22.82h-9.12V73.29H294V96.11l13.07-22.82h9.11v34.83Z"/>
            <path class="cls-2"
                  d="M349.15,115.67v-7.55H328.76v7.55H320.5V99.88h4.69l10.47-26.59h6.53l10.47,26.59h4.68v15.79ZM338.92,85.05l-5.11,14.83H344Z"/>
            <path class="cls-2"
                  d="M379.71,108.94a14.42,14.42,0,0,1-10.47-4.09v14.9H361V73.29h7.52v4.09a14.25,14.25,0,0,1,11.21-4.9c9.86,0,17,7.6,17,18.1S389.57,108.94,379.71,108.94Zm-1-28.79c-5.67,0-10,4.52-10,10.49s4.32,10.63,10.11,10.63c5.42,0,9.67-4.59,9.67-10.5S384.27,80.15,378.73,80.15Z"/>
            <path class="cls-2"
                  d="M418.2,108.94a18.23,18.23,0,1,1,18.17-18A18.19,18.19,0,0,1,418.2,108.94Zm0-28.79c-5.36,0-9.86,4.71-9.86,10.43,0,6,4.37,10.69,9.92,10.69s9.86-4.72,9.86-10.56S423.68,80.15,418.2,80.15Z"/>
            <polygon class="cls-3" points="58.67 138.64 58.67 138.63 58.67 138.64 58.67 138.64"/>
            <path class="cls-4"
                  d="M61.42,121.66a32.78,32.78,0,0,0-5.65,4.26h0l-.24.25h0a12.41,12.41,0,0,0-1.24,1.47l0,0-.15.21,0,.05-.13.2,0,.06a2,2,0,0,0-.11.2l0,.06-.11.19,0,.06a5.35,5.35,0,0,0-.39.89l0,.07-.05.17,0,.09c0,.06,0,.11,0,.16a.43.43,0,0,0,0,.11.83.83,0,0,0,0,.15.43.43,0,0,1,0,.11c0,.05,0,.1,0,.15s0,.08,0,.12,0,.09,0,.14a.49.49,0,0,0,0,.12c0,.05,0,.1,0,.15v.14a1.69,1.69,0,0,0,0,.23v.14s0,.08,0,.12,0,.1,0,.14,0,.09,0,.13l0,.14a.5.5,0,0,0,0,.12.83.83,0,0,0,0,.15l0,.11c0,.06,0,.11,0,.16a.36.36,0,0,1,0,.11l.06.17a.36.36,0,0,0,0,.09l.1.25h0l.13.27,0,.07.11.2.06.09.11.17.06.1.12.17.07.09.13.18.07.09.16.19.06.07.23.26h0c.17.18.35.36.55.54l.06.06.23.21.09.07.23.2.09.07.25.2.09.07.28.21.08.06.35.25h0c.13.1.27.19.41.28.41.27.85.54,1.33.8h0c.48.25,1,.5,1.47.74l.09.05c9.13,4.24,25.47,6.28,27.59,2.49C89.94,138.1,82.08,131.14,61.42,121.66Z"/>
            <path class="cls-5"
                  d="M109.76,52.53h0l.4-.25h0c.92-.58,1.78-1.17,2.57-1.75l0,0,.3-.23,0,0,.29-.22,0,0,.29-.23h0c.41-.33.8-.66,1.16-1h0l.23-.22,0,0,.21-.2.06-.06.19-.2.06-.06.19-.2.05-.05.19-.21v0c.21-.24.41-.48.59-.72h0l.15-.19a.43.43,0,0,1,0-.07l.13-.18,0-.08.12-.18a.41.41,0,0,1,0-.09,1,1,0,0,0,.1-.17l0-.09a1,1,0,0,0,.1-.17l0-.08.09-.18s0,0,0,0,.13-.28.19-.43v0l.06-.17,0-.09a1.42,1.42,0,0,0,.05-.16s0-.07,0-.11a.83.83,0,0,1,0-.15.43.43,0,0,1,0-.11l0-.15,0-.12a.78.78,0,0,1,0-.14s0-.08,0-.12,0-.1,0-.14a.49.49,0,0,1,0-.12.76.76,0,0,1,0-.15V42.9c0-.07,0-.14,0-.21a.66.66,0,0,0,0-.14s0-.08,0-.13,0-.09,0-.13l0-.13a.68.68,0,0,0,0-.14l0-.13,0-.13,0-.13a.74.74,0,0,1,0-.14.56.56,0,0,1,0-.12l-.06-.15,0-.12a1.08,1.08,0,0,1-.08-.19.37.37,0,0,1,0-.11l-.11-.21-.06-.11-.09-.16-.07-.11-.09-.15-.08-.12-.1-.15-.09-.11-.11-.16-.09-.11-.14-.16-.08-.1-.17-.19-.07-.08-.26-.26-.07-.07-.2-.19-.11-.1-.18-.17-.13-.1-.18-.16-.14-.11-.2-.16-.14-.11-.21-.16-.14-.1-.25-.18-.12-.09-.39-.26-.62-.39h0l-.66-.38h0l-.05,0c-.49-.25-1-.5-1.47-.74l-.09,0c-9.14-4.24-25.47-6.28-27.59-2.49C81.24,36.09,89.09,43.05,109.76,52.53Z"/>
            <path class="cls-6"
                  d="M110.64,128.29c19-8.95,27.09-17,30.14-23.64A57.67,57.67,0,0,1,85.6,145C76.11,144.93,93.87,136.18,110.64,128.29Z"/>
            <path class="cls-7"
                  d="M29.37,100.1c1.39,9.32,9.25,27.64,29.46,38.23-.48-.26-.92-.53-1.33-.8-18-11.92,21.25-23.68,52-37.62,20.65-9.38,33.71-16.73,32.36-25.82-1.4-9.32-9.24-27.61-29.41-38.2h0c.45.25.88.51,1.28.77,18,11.92-21.25,23.68-52,37.62C41.08,83.66,28,91,29.37,100.1Z"/>
            <path class="cls-8"
                  d="M133.6,87.09c-5.67,4.08-14,8.21-24.15,12.82-7.76,3.52-16.07,6.91-23.86,10.19,13.06,5.51,24.68,10.73,29.83,15.84a96.69,96.69,0,0,0,14.12-8.65l0,0,.85-.65.06,0,.81-.64,0,0,.76-.63,0,0,.68-.59.14-.11.59-.54.18-.16.53-.5.2-.19.48-.47a2.28,2.28,0,0,1,.22-.22l.34-.35.31-.33.27-.28.36-.41.21-.23.4-.47.15-.18c.28-.33.54-.66.8-1l0,0,.47-.63v0a23,23,0,0,0,2.28-3.85,36.13,36.13,0,0,0,1-4.55C142.5,95.48,139.46,91.31,133.6,87.09Z"/>
            <path class="cls-9"
                  d="M37.58,87.09c5.67-4.07,14-8.2,24.15-12.81,7.76-3.53,16.07-6.91,23.86-10.19-13-5.5-24.66-10.72-29.82-15.82A85.1,85.1,0,0,0,38.32,59.62l-.07.05-.65.59-.12.11-.58.55-.15.14c-.18.17-.36.34-.53.52l-.16.16-.44.45-.2.21-.35.38a3.33,3.33,0,0,0-.25.28c-.11.11-.21.23-.32.35l-.21.24L34,64l-.23.28-.24.31L33.2,65l-.11.15-.38.51-.08.11-.4.57,0,0a23.94,23.94,0,0,0-1.81,3.18,35.34,35.34,0,0,0-1,4.53C28.68,78.71,31.72,82.88,37.58,87.09Z"/>
            <path class="cls-10"
                  d="M60.53,45.93c-19,9-27.09,17-30.14,23.63A57.68,57.68,0,0,1,85.57,29.24C95.06,29.29,77.29,38,60.53,45.93Z"/>
        </g>
    </g>
</svg>